<svg xmlns="http://www.w3.org/2000/svg" width="1563" height="893" viewBox="0 0 1563 893"><path fill="#4c4b4b" d="M780.56 261.574c8.056.985 18.527 14.119 23.201 20.43 20-8.998 20.833-9.484 25.386 11.427 10.052 46.153-16.107 83.276-42.522 118.005 2.527 7.223 17.992 48.475 17.133 52.777-1.684 1.892-1.927 2.057-4.38 2.672-2.948-1.974-15.296-40.057-17.34-46.175-5.573 10.908-17.583 46.72-22.077 59.691 34.808 2.614 65.395-12.287 78.239-45.929 2.207-5.779.308-15.778 6.24-19.291 2.62.342 1.717-.097 3.572 1.49 1.46 5.214-.772 12.082-2.345 17.063-6.279 19.88-17.286 34.364-35.875 43.973 2.829 7.578 19.016 50.326 17.604 55.058-2.012 1.538-1.05 1.133-3.891 1.276-2.843-1.716-2.053-1.412-3.605-5.038-5.414-15.85-11.278-31.882-16.319-47.816-17.851 7.09-27.875 6.994-46.547 6.423-2.178 7.415-12.809 43.869-18.36 46.44-2.551-.806-1.772-.21-3.245-2.081-.353-5.218 11.63-36.829 14.34-45.234-26.856-7.04-48.261-22.003-58.217-49.03-1.507-4.092-4.67-17.684-2.84-21.42.278-.139 1.187-.556 1.428-.563 25.374-.739 50.31 15.363 61.316 38.082 2.233 4.61 3.496 8.59 4.928 13.252 7.028-18.427 13.262-37.144 20.221-55.588-29.768-35.595-55.669-80.026-40.84-127.181 4.239-13.474 14.332-6.11 23.198-2.162 6.395-9.755 12.231-14.045 21.596-20.55m-9.32 130.909c-6.806-25.89-14.226-52.583-.773-79.08.768-1.514.813-1.243 2.31-2.03 2.336.973 2.993 2.09 4.641 4.015-1.521 3.547-3.28 7.347-4.334 11.031-5.985 23.117-.521 51.108 8.49 72.641 6.835-18.57 12.525-43.896 10.337-63.957-2.617-23.977-23.157-42.721-45.28-50.657a43 43 0 0 0-2.633-.848c-14.062 43.8 2.825 73.125 27.241 108.885m10.391-122.267c-6.55 4.407-11.933 8.615-16.017 15.662 5.487 3.497 11.3 7.7 15.99 12.225 5.382-4.943 9.722-8.416 15.932-12.377-4.098-5.292-9.714-12.73-15.905-15.51m-30.947 208.666c-3.122-30.282-24.488-51.812-54.489-55.478a63.04 63.04 0 0 0 24.363 41.842c7.581 5.822 20.674 12.167 30.126 13.636m67.948-194.893c-11.421 4.169-23.23 11.032-31.981 19.49 16.258 24.497 15.14 43.699 9.423 71.937-.54 2.665-.919 4.746-1.763 7.384l-1.113 4.601.6.674c3.37-2.527 6.588-8.332 8.869-11.871 16.12-25.021 26.334-54.303 18.687-84.048-.496-1.931-1.744-6.714-2.722-8.167"/></svg>