<svg xmlns="http://www.w3.org/2000/svg" width="1600" height="893" viewBox="0 0 1600 893"><path fill="#C78D76" d="M800.149 188.316c9.339 3.386 17.721 13.69 23.762 21.22 23.125-10.66 23.174-5.448 26.704 17.936 6.836 45.291-18.952 82.389-44.914 116.533 3.009 8.377 17.885 48.474 18.74 54.42-1.381 1.76-3.96 3.153-6.166 2.652-2.958-5.095-14.657-39.851-17.394-47.629-7.065 18.633-16.817 43.98-21.784 63.009 34.62.611 65.563-11.064 78.795-46.408 2.213-5.912 1.535-16.876 6.958-20.664 7.648 2.066 1.318 19.476-.314 23.863-7.087 19.057-17.979 29.427-34.54 40.3 3.984 8.557 18.742 48.787 14.571 55.583l-1.655-.143c-2.481-1.557-3.005-4.248-4.003-7.09a3991 3991 0 0 1-15.41-45.187c-18.504 7.081-27.549 6.868-47.255 6.564-2.305 8.862-12.309 43.013-20.209 45.148l-1.333-1.036c-.501-7.718 10.874-36.166 14.257-45.311-33.336-7.779-59.648-31.873-62.667-68.371-.151-1.818.977-2.473 2.201-3.372 7.311-1.309 23.29 3.742 30.056 7.103 20.31 10.091 29.702 24.171 36.99 44.715 5.824-18.298 13.988-39.577 20.44-58.011-33.379-40.952-59.445-88.957-38.294-141.762 8.086 2.015 12.159 3.787 19.981 6.957 7.364-9.921 12.317-14.184 22.483-21.019m-17.64 124.005a296 296 0 0 0 8.214 12.23l-2.527-8.684c-7.394-32.542-10.853-46.324 3.169-77.606 1.679 1.901 3.353 4.168 4.923 6.187-13.153 31.116-5.138 56.329 4.502 86.977l1.166-3.48c8.601-25.868 16.793-56.879 3.473-82.613-9.043-17.472-24.827-28.313-43.121-34.227q-.52 2.158-1.012 4.324c-9.147 40.373-.274 62.846 21.213 96.892m1.696-99.043c7.38 4.565 10.127 7.035 16.722 12.583 5.835-4.997 10.192-8.157 16.525-12.563-5.261-6.975-8.807-12.081-16.724-16.375-7.659 5.945-10.783 8.608-16.523 16.355m28.057 106.874-.097 2.116c2.17-1.297 4.843-5.933 6.342-8.164 19.377-28.854 33.73-66.22 21.291-100.65-.115-.32-.733-1.137-.982-1.454-.904-.197-1.594-.429-2.502-.391-13.612 6.55-18.895 9.963-30.593 19.587 19.989 31.758 16.161 54.139 6.541 88.956m-98.138 37.752c5.748 30.249 25.894 49.88 55.677 56.899-2.631-32.793-24.676-51.697-55.677-56.899"/><path fill="#C78D76" d="M1099.61 531.337c24.7-.219 51.02-1.794 75.25 2.844 23.03 4.408 31.02 27.13 24.95 47.886-3.71 12.699-13.53 18.671-24.54 24.309 9.09 18.223 18.51 39.946 30.66 56.331 4.05 5.463 12.32 9.923 18.29 13.23-12.47.082-24.94.073-37.4-.027l-7.96-15.775a2988 2988 0 0 1-25.05-50.707l-24.2-.077c-.15 24.138-3.82 47.001 10.23 66.603l-40.01-.081c3.23-4.389 6.13-9.116 7.44-14.445 3.39-13.862 3.41-96.909.38-112.075-1.31-6.562-4.65-12.34-8.04-18.016m30.05 72.704c12.33.133 33.08 1.737 42.06-7.861 9.78-14.556 13.43-43.476-3.04-54.943-8.94-6.226-28.04-4.699-38.97-4.597z"/><path fill="#C78D76" d="M442.005 529.826c2.234-.08 6.504-.371 7.661 1.441 3.916 6.132 7.268 16.705 9.867 23.546l23.219 61.241c7.284 19.339 15.289 46.355 31.102 60.079-14.298.177-29.052-.118-43.383-.232 9.989-17.866.192-35.258-6.82-52.354l-15.604-.063-34.727.057c-8.005 20.389-16.715 32.372-2.403 52.341l-32.395-.054c18.347-18.657 24.757-43.39 33.771-67.318zm-2.552 88.268 22.332.033c-8.296-19.688-14.998-41.807-23.315-61.317-6.996 17.998-17.629 43.175-22.961 61.205z"/><path fill="#C78D76" d="m654.114 531.411 92.312-.067c2.714 12.973 5.623 26.169 7.212 39.309-30.824-37.1-18.444-34.583-69.325-33.926l-.004 63.432c7.475-.008 28.324 1.237 33.314-6.432 2.463-3.786 3.209-9.903 9.094-11.295l1.043.854c2.095 11.991 1.225 33.708.578 46.266-6.167-10.258-12.464-22.014-25.509-23.716-3.66-.477-15.642-1.473-18.365.457l-.153 2.908.014 61.998c17.417.68 39.632 3.338 54.834-7.376 8.363-5.894 14.239-22.188 22.166-26.422l1.02.532c.382 3.936-5.565 32.601-6.622 38.482-33.043.183-68.734.666-101.593-.494 3.231-5.237 6.713-10.77 8.008-16.859 2.787-13.107 2.377-99.707-.35-112.898-1.144-5.534-4.639-10.096-7.674-14.753"/><path fill="#C78D76" d="m968.931 531.278 93.189.003c2.63 12.449 5.47 23.953 5.98 36.705-6.71-6.922-11.93-16.01-19.21-22.917-12.31-11.661-32.81-9.257-48.971-8.457l.069 63.541c44.692 1.272 28.632-13.07 42.662-18.022l1.15 1.409c1.07 4.429 1.52 36.668-.23 40.846l-1.28.287c-3.06-1.407-5.31-8.473-9.9-12.512-9.84-8.655-20.33-7.083-32.431-6.751l.026 9.846.007 55.96c11.658-.054 23.108.269 34.818-.056 20.77-.576 29.62-20.112 42.83-35.192.63 8.112-4.34 30.829-6.16 40.458-32.36-1.088-68.37.06-101.644-.553 3.32-5.628 7.752-12.665 8.329-19.287 1.178-13.515 1.018-28.199.905-42.029-.183-22.366 1.204-47.076-2.045-69.158-.607-4.124-5.554-10.702-8.094-14.121"/><path fill="#C78D76" d="M516.009 531.359c36.471-.58 74.541-.071 111.133-.097 3.096 14.871 5.928 29.357 7.776 44.444-20.022-25.196-16.173-39.554-52.991-39.086q-.423 57.572.139 115.143c1.948 12.204 2.884 14.742 10.299 24.534-13.517.246-27.845-.173-41.424-.365 14.163-18.884 10.522-41.735 10.469-64.33l-.112-74.897c-35.672-1.001-34.55 14.793-53.151 39.095 1.171-13.591 5.092-30.944 7.862-44.441"/><path fill="#C78D76" d="M783.142 531.372c13.147.422 27.377.061 40.647.045-2.949 4.456-7.547 11.359-8.388 16.492-2.426 14.813-1.641 32.994-1.609 48.074l.171 75.332c29.808.111 46.289 4.855 62.876-24.125 1.512-2.643 6.823-11.12 10.086-9.932l.164 2.015a1265 1265 0 0 1-7.876 36.746c-31.772-.105-63.805.535-95.505.127 2.328-3.662 7.798-12.888 8.09-17.487 2.263-35.594 2.095-75.872-.301-111.461-.3-4.457-6.089-12.437-8.355-15.826"/><path fill="#C78D76" d="M905.735 531.248c13.52.335 28.013.111 41.611.149-2.537 3.172-8.778 12.429-9.121 16.897-2.69 35.076-2.956 76.911.224 111.885.353 3.886 6.253 12.611 8.151 15.567-13.03.799-26.828.408-39.944.241 7.483-11.695 9.327-19.826 9.159-33.517-.397-32.301 2.14-65.483-1.967-97.558-.492-3.845-5.713-10.457-8.113-13.664"/></svg>
