<svg xmlns="http://www.w3.org/2000/svg" width="1344" height="768" viewBox="0 0 1344 768"><path fill="#494948" d="M927.542 323.573c20.464-.143 46.719-1.502 66.337 3.236 18.161 4.385 24.301 24.728 18.841 40.92-3.58 10.649-11.38 15.35-20.977 20.018 10.007 16.224 17.377 40.684 31.837 53.471 1.52 1.343 7.41 4.228 9.53 5.285-2.82.205-5.91.116-8.72.236-20.22.864-21.01 3.906-29.733-14.771-1.227-3.174-5.176-10.514-6.85-13.863l-13.859-27.877c-6.781-.491-14.457-.246-21.232.039.567 21.272-3.916 38.775 8.351 56.51q-17.035.219-34.069.071c2.396-3.882 7.661-10.521 7.97-15.757 1.763-29.854 1.547-62.475-.12-92.346-.265-4.766-4.833-11.623-7.306-15.172m25.298 62.2c13.129-.426 26.896 2.728 36.666-6.981 9.277-12.691 11.124-35.732-2.657-46.305-7.776-5.969-24.236-4.548-34.07-4.38z"/><path fill="#494948" d="M366.991 321.809c1.267.009 5.511.106 6.1 1.118 3.129 5.373 6.225 14.571 8.382 20.249l20.908 54.675c6.235 16.283 12.373 37.119 25.187 49.05-11.461.572-25.04.385-36.506.005 2.584-3.754 3.597-6.187 5.237-10.353-1.441-10.917-6.61-23.489-10.429-34.047-3.941-.184-8.321-.106-12.3-.121l-31.931.118c-5.439 16.538-15.533 29.048-2.401 44.496-8.574.107-17.555-.074-26.156-.136 19.182-20.276 31.284-72.369 43.989-98.859 3.223-6.721 7.468-19.07 9.92-26.195m-23.518 76.126c5.869.088 13.549.411 19.269.095l21.126-.104c-6.22-16.888-13.092-36.811-20.216-52.972a2425 2425 0 0 0-20.179 52.981"/><path fill="#494948" d="M816.325 323.583c23.615 1.508 54.436-.244 78.911.287 1.028 5.208 6.523 26.644 5.205 29.238-5.212-1.362-16.138-21.916-24.777-23.982-10.906-2.609-22.307-1.47-33.445-1.122-.462 16.979-.256 37.197.304 54.138 7.744.086 22.334 1.056 28.202-5.726 2.314-2.675 3.185-9.42 8.198-10.217 2.125 3.456 1.127 33.981.68 39.588-6.836-8.584-10.271-18.857-23.39-19.161-4.525-.105-9.062-.024-13.581.041l-.699 7.929q-.102 24.26.073 48.52c4.583-.01 9.554.075 13.959.106 15.753.111 26.616 2.212 38.122-11.308 3.708-4.357 9.647-15.297 13.882-18.041l.979.224c1.059 2.487-5.078 27.843-6.072 32.911-8.808.569-21.708.179-30.76.167l-56.316-.203c7.924-8.66 9.439-17.497 9.531-28.767.179-21.869.013-43.719-.159-65.585-.096-12.183-1.123-19.063-8.847-29.037"/><path fill="#494948" d="M548.007 323.685c25.861.203 52.663-.18 78.322.275.994 4.096 7.291 26.369 4.185 29.12-1.549-.904-3.799-3.723-4.768-5.315-14.835-24.369-26.709-20.154-52.788-20.033.04 17.142-.39 37.592.373 54.457 23.144.509 25.034 1.198 37.45-19.223.838 8.09.265 34.639.075 43.683-3.649-5.415-5.228-9.767-10.19-14.552-7.279-7.02-18.067-5.596-27.64-5.358l-.047 9.24.159 47.097c21.598-.117 41.092 4.89 54.731-14.248 2.034-2.855 8.849-13.471 11.42-13.731 1.398 3.861-4.296 26.668-5.5 32.377-27.695.46-58.519-.362-86.517-.432 8.494-12.069 9.348-16.351 9.108-31.164-.413-25.493 1.081-51.446-.913-76.837-.331-4.215-5.004-11.748-7.46-15.356"/><path fill="#494948" d="m433.677 323.918 61.361-.044c8.026.02 22.464-.543 29.589.323 1.11 5.488 6.675 30.081 4.993 33.571-3.517-.842-11.674-18.275-17.4-23.162-8.648-7.382-14.993-6.432-25.818-6.438.373 32.701-.768 66.07.102 98.725.971 9.37 2.608 13.093 8.416 20.111-11.892-.136-23.831.122-35.812-.044q.657-.631 1.278-1.297c6.079-6.443 8.695-13.897 8.653-22.672-.15-31.313.959-63.453-.113-94.707-15.164-.728-22.551.143-32.173 13.533-2.814 3.917-8.061 14.735-12.878 15.513-.554-1.481 4.901-29.219 6.654-32.406.458-.832 2.193-.85 3.148-1.006"/><path fill="#494948" d="M658.309 323.917q17.089-.131 34.175.23c-8.88 11.916-8.771 16.05-8.69 30.468.166 29.477-.731 58.96-.529 88.442 8.82.093 23.892.735 32.045-.496 14.071-2.123 21.338-18.133 28.394-28.53 1.764-.874 1.042-.843 2.676-.299l.487 1.26-7.659 32.463c-25.965.542-55.204-.41-81.515-.513 8.263-9.865 8.834-16.032 8.706-28.491-.271-26.341.487-52.869-.654-79.161-.178-4.092-5.052-11.812-7.436-15.373"/><path fill="#494948" d="m762.597 323.586 35.356.1c-7.357 8.05-9.533 17.188-9.579 27.783-.1 22.954-.135 45.928-.079 68.881.024 9.638 2.599 19.142 9.349 26.288-2.843.806-30.745.405-35.785.371 3.5-4.12 8.468-11.272 8.689-16.925 1.168-29.99 1.084-60.595.108-90.585-.146-4.475-5.325-12.216-8.059-15.913"/></svg>